<svg version="1.1" id="Layer_1" xmlns="http://www.w3.org/2000/svg" xmlns:xlink="http://www.w3.org/1999/xlink" x="0px" y="0px"
	 width="100%" viewBox="0 0 580 386" enable-background="new 0 0 580 386" xml:space="preserve">
<path fill="#FEFEFE" opacity="1.000000" stroke="none" 
	d="
M320.000000,387.000000 
	C213.333359,387.000000 107.166718,387.000000 1.000057,387.000000 
	C1.000038,258.333405 1.000038,129.666779 1.000019,1.000126 
	C194.333237,1.000084 387.666473,1.000084 580.999756,1.000042 
	C580.999878,129.666534 580.999878,258.333069 580.999939,386.999817 
	C494.166656,387.000000 407.333344,387.000000 320.000000,387.000000 
M161.683899,163.531555 
	C179.198547,164.341141 196.713196,165.150711 214.614395,165.978149 
	C213.415421,161.549332 211.546463,159.787140 207.368729,160.034958 
	C191.931641,160.950653 176.474426,161.527267 160.116287,162.102417 
	C156.896210,162.102417 153.676132,162.102417 150.456070,162.102417 
	C150.454468,162.536728 150.452866,162.971039 150.451279,163.405350 
	C153.981537,163.405350 157.511810,163.405350 161.683899,163.531555 
M363.797638,146.699341 
	C353.596100,148.942078 343.123688,150.362946 333.254944,153.615402 
	C317.474915,158.816040 302.257477,165.714294 286.503906,171.007019 
	C268.783386,176.960571 262.701111,174.589050 251.331696,159.592331 
	C249.923157,157.734436 248.611588,155.800964 247.160904,153.977448 
	C243.119171,148.897049 239.304749,143.599167 234.899689,138.851929 
	C225.106094,128.297562 213.022583,122.694542 198.397308,123.551773 
	C186.462692,124.251297 175.678314,128.514999 165.511414,134.783340 
	C169.652054,134.988342 173.742798,134.905212 177.806778,134.531128 
	C198.248978,132.649460 215.121246,137.986496 225.085342,157.582047 
	C226.064560,159.507797 227.133728,161.412170 228.375061,163.175919 
	C233.250610,170.103363 237.645416,177.477661 243.262650,183.751343 
	C253.967316,195.707001 267.629181,199.175095 283.254120,195.640106 
	C298.054840,192.291580 311.235474,185.217102 324.564453,178.379593 
	C337.432587,171.778488 350.231110,164.965988 363.472656,159.192352 
	C374.069946,154.571686 384.361328,155.174530 391.849609,166.113800 
	C391.287262,159.001953 388.095795,153.259109 381.922699,150.593079 
	C376.594177,148.291809 370.451508,147.875626 363.797638,146.699341 
M364.273804,129.555511 
	C371.149567,111.925331 367.950378,95.377296 357.620087,80.346817 
	C349.151428,68.025055 336.142914,68.893517 327.828827,81.364082 
	C324.973755,85.646515 322.175873,90.013885 318.877502,93.944366 
	C311.754211,102.432747 304.201477,103.862053 295.262909,97.314003 
	C289.056061,92.767097 283.661652,86.933372 278.557220,81.102928 
	C271.732178,73.307137 263.393250,73.796097 258.477631,82.918915 
	C257.534912,84.668488 256.628113,86.507904 256.132446,88.416931 
	C251.320572,106.949295 253.146179,124.694138 262.901978,141.345871 
	C264.527069,144.119659 266.830200,146.496185 268.820038,149.056290 
	C269.208282,148.829453 269.596527,148.602631 269.984741,148.375809 
	C262.683197,131.288452 262.243103,114.076721 268.054535,97.078217 
	C274.038818,102.608292 279.356232,108.677048 285.759003,113.214073 
	C302.415955,125.017181 321.002869,121.836464 333.198669,105.451126 
	C337.317017,99.917992 340.588257,93.754326 345.031128,86.618965 
	C348.586639,91.481400 352.270844,95.521950 354.797882,100.189056 
	C359.668030,109.183464 363.164673,118.705505 362.191376,129.280304 
	C362.067200,130.629211 361.869659,132.684265 364.273804,129.555511 
M349.220764,247.969559 
	C349.220764,259.884796 349.220764,271.800018 349.220764,283.920898 
	C352.615417,283.920898 355.675812,283.920898 359.334778,283.920898 
	C359.334778,277.677856 359.334778,271.666779 359.334778,264.293854 
	C363.816620,269.992554 367.846954,274.259094 370.844574,279.157623 
	C374.188629,284.622253 378.555573,284.876434 383.665405,283.790497 
	C383.665405,271.404907 383.665405,259.372498 383.665405,247.504395 
	C380.207153,247.504395 377.152100,247.504395 373.670593,247.504395 
	C373.670593,253.607285 373.670593,259.317200 373.670593,266.369202 
	C369.715881,261.325348 366.152802,257.591736 363.562805,253.274323 
	C360.255798,247.761658 355.836639,246.060516 349.220764,247.969559 
M423.341248,251.106186 
	C421.464813,250.049973 419.700531,248.644745 417.692047,247.999451 
	C410.003265,245.529160 402.469452,245.694839 396.039154,251.191345 
	C390.447845,255.970657 388.347717,262.203522 389.731598,269.571869 
	C391.134064,277.039093 395.589447,281.742828 402.658875,283.964905 
	C410.505127,286.431213 417.790741,284.857819 424.379852,280.108429 
	C425.153107,279.551056 425.665894,278.153290 425.696625,277.127075 
	C425.835388,272.492889 425.757233,267.852173 425.757233,263.050323 
	C424.466064,262.874084 423.506042,262.637848 422.544067,262.629608 
	C417.915863,262.589935 413.287170,262.611786 408.676086,262.611786 
	C408.676086,265.374878 408.676086,267.595062 408.676086,269.868439 
	C411.194763,269.999390 413.330688,270.110443 415.379883,270.216949 
	C416.699860,274.120911 415.102051,275.758026 411.539520,276.107941 
	C406.971008,276.556671 403.204865,275.189453 401.108032,270.955414 
	C399.001282,266.701294 399.474365,262.463715 402.640167,258.851044 
	C405.813477,255.229797 409.886841,255.149612 414.091888,256.695923 
	C415.586151,257.245422 416.940887,258.174316 418.702240,259.112732 
	C420.479034,256.504639 422.123413,254.090897 423.341248,251.106186 
M255.292389,269.635803 
	C256.651001,260.038544 252.810181,252.261734 244.843018,248.478180 
	C236.829010,244.672394 226.779434,246.484970 220.896286,252.797348 
	C215.256210,258.848907 214.043045,267.854706 218.163162,275.035034 
	C222.410339,282.436768 229.175201,285.636902 237.450302,284.913910 
	C246.416260,284.130554 252.544724,279.295319 255.292389,269.635803 
M210.885345,251.720551 
	C210.792084,250.282867 210.698822,248.845169 210.600510,247.329559 
	C207.107452,247.329559 204.006439,247.329559 200.360107,247.329559 
	C200.360107,251.921524 200.360107,256.318756 200.360107,260.854584 
	C195.722015,260.854584 191.634552,260.854584 187.092896,260.854584 
	C187.092896,256.170898 187.092896,251.748276 187.092896,247.402039 
	C183.537811,247.402039 180.443726,247.402039 177.241638,247.402039 
	C177.241638,259.745209 177.241638,271.790436 177.241638,283.955841 
	C180.630264,283.955841 183.736526,283.955841 187.307220,283.955841 
	C187.307220,279.504608 187.307220,275.249817 187.307220,270.680908 
	C191.803970,270.680908 195.835083,270.680908 200.354889,270.680908 
	C200.354889,275.215576 200.354889,279.475494 200.354889,283.854004 
	C204.072098,283.854004 207.295364,283.854004 210.885559,283.854004 
	C210.885559,273.258423 210.885559,262.968597 210.885345,251.720551 
M155.864288,276.111847 
	C152.327469,274.931793 148.790649,273.751740 145.051239,272.504120 
	C143.498215,274.389771 141.817017,276.431000 140.144180,278.462128 
	C146.492844,284.842682 157.826019,286.967407 165.575043,283.319275 
	C169.926743,281.270569 172.041977,277.843292 172.180634,273.046997 
	C172.320450,268.209839 169.856262,265.144012 165.606140,263.513672 
	C162.213409,262.212250 158.597870,261.493896 155.197479,260.209045 
	C154.038300,259.771057 153.232956,258.396576 152.265945,257.450012 
	C153.572647,256.706329 155.006653,255.179169 156.161987,255.366913 
	C159.533875,255.914871 162.794495,257.147644 166.530121,258.237854 
	C167.904404,256.287903 169.491302,254.036331 171.236328,251.560379 
	C164.307281,246.279175 156.965607,245.387711 149.273346,247.738770 
	C144.324615,249.251282 141.815048,253.084930 141.667465,258.303802 
	C141.518616,263.567688 144.433578,266.639130 149.124344,268.258820 
	C151.787979,269.178589 154.612213,269.674652 157.202240,270.751068 
	C158.849609,271.435730 160.200027,272.834930 161.683609,273.913696 
	C160.033356,274.664124 158.383102,275.414551 155.864288,276.111847 
M326.333862,266.619904 
	C329.685211,257.818481 326.840088,249.815369 318.834045,248.294281 
	C311.671417,246.933426 304.199890,247.198532 296.772156,246.740524 
	C296.772156,259.840240 296.772156,271.854828 296.772156,283.823700 
	C300.331299,283.823700 303.537323,283.823700 307.041504,283.823700 
	C307.041504,280.366180 307.041504,277.255951 307.041504,273.861969 
	C314.163147,273.494232 321.495178,274.255615 326.333862,266.619904 
M282.275146,273.032104 
	C289.575256,270.176575 292.446747,266.407898 292.261597,259.925598 
	C292.098907,254.230087 289.151489,249.300095 283.758026,248.420639 
	C276.356476,247.213715 268.758179,247.213486 261.358337,246.704041 
	C261.358337,259.912323 261.358337,271.953064 261.358337,283.856506 
	C264.824005,283.856506 267.903503,283.856506 271.298584,283.856506 
	C271.298584,280.432892 271.298584,277.322235 271.298584,274.071472 
	C274.890533,273.739044 278.171844,273.435364 282.275146,273.032104 
M357.889496,193.333801 
	C362.638550,203.318405 373.466614,205.836380 380.527710,198.598129 
	C384.857605,194.159592 385.565338,186.807968 382.159637,181.646545 
	C378.640350,176.313004 371.939606,174.126129 365.924255,176.347870 
	C359.642578,178.667953 356.477448,184.901581 357.889496,193.333801 
M308.342194,207.832687 
	C298.019348,205.301712 289.153015,212.322266 290.346985,222.081665 
	C291.139099,228.556137 296.087616,233.470673 302.410156,234.061951 
	C308.930481,234.671753 314.919678,230.898300 316.832184,224.975449 
	C319.018585,218.204407 316.176300,212.000595 308.342194,207.832687 
M341.685364,284.085571 
	C342.030029,282.082916 342.652771,280.082977 342.672607,278.077118 
	C342.773865,267.842255 342.719330,257.605865 342.719330,247.508484 
	C338.804596,247.508484 335.594360,247.508484 332.318359,247.508484 
	C332.318359,259.852081 332.318359,271.773895 332.318359,284.186707 
	C335.243073,284.186707 338.037720,284.186707 341.685364,284.085571 
M217.621994,191.178406 
	C205.690262,191.736084 193.758530,192.293777 181.826782,192.851456 
	C181.843506,193.229324 181.860214,193.607193 181.876923,193.985046 
	C203.872131,194.895676 225.867340,195.806290 247.862549,196.716904 
	C243.275925,194.065842 238.527008,191.693069 233.528488,190.906448 
	C228.683044,190.143936 223.581085,191.011459 217.621994,191.178406 
M382.169739,302.651978 
	C382.029968,303.961975 381.890198,305.271942 381.691071,307.138123 
	C378.912354,303.918182 376.707977,301.363770 374.503632,298.809357 
	C374.199524,299.126129 373.895416,299.442902 373.591309,299.759705 
	C373.591309,304.132080 373.591309,308.504456 373.591309,312.876831 
	C374.092133,312.913300 374.592957,312.949768 375.093750,312.986237 
	C375.436310,310.610535 375.778870,308.234833 376.186310,305.409363 
	C378.783264,308.279785 381.127502,310.870850 383.471741,313.461914 
	C383.821960,313.161804 384.172150,312.861694 384.522369,312.561584 
	C384.522369,308.260529 384.522369,303.959473 384.522369,299.658417 
	C384.196777,299.558594 383.871185,299.458801 383.545593,299.359009 
	C383.085327,300.199707 382.625031,301.040436 382.169739,302.651978 
M249.598526,305.995911 
	C247.798767,305.743713 245.999008,305.491486 244.199265,305.239288 
	C244.104828,305.700714 244.010406,306.162109 243.915985,306.623535 
	C244.364609,307.022614 244.793381,307.447327 245.267029,307.814148 
	C245.833481,308.252808 246.438278,308.642029 247.026459,309.052643 
	C246.938187,309.539948 246.849899,310.027283 246.761627,310.514587 
	C245.074432,310.410461 242.926285,310.896820 241.827515,310.039001 
	C240.690201,309.151062 239.909256,306.864594 240.124741,305.354279 
	C240.921844,299.767395 245.901611,303.317261 249.194580,301.955841 
	C246.440475,298.348358 243.386093,298.547241 240.319748,300.187164 
	C236.805420,302.066650 236.350586,305.508057 237.350967,308.829712 
	C238.446838,312.468506 241.613480,313.877502 245.210449,313.456116 
	C248.995621,313.012665 250.609802,310.609802 249.598526,305.995911 
M357.288147,302.853271 
	C359.696472,302.545166 362.104767,302.237091 364.819244,301.889832 
	C361.335175,298.519562 357.360626,298.393799 354.691223,301.221497 
	C352.027679,304.042938 351.962616,310.328949 355.192780,311.881622 
	C357.552551,313.015900 360.868988,312.827576 363.555542,312.262207 
	C364.532257,312.056671 365.270966,309.076141 365.393402,307.311432 
	C365.438660,306.659302 363.479462,305.630737 362.281677,305.225616 
	C361.642609,305.009460 360.677826,305.756195 359.364777,306.257416 
	C360.828461,307.495667 361.829407,308.342438 362.830322,309.189240 
	C362.716125,309.669067 362.601959,310.148895 362.487762,310.628723 
	C360.796082,310.455200 358.014954,310.804565 357.630554,310.003632 
	C356.718323,308.103088 356.942261,305.657257 357.288147,302.853271 
M218.045044,311.353851 
	C220.669922,313.650452 223.810852,314.709839 226.579620,312.383453 
	C228.365845,310.882660 230.253372,308.002625 230.014374,305.987518 
	C229.742477,303.694763 227.490646,300.407440 225.482727,299.874023 
	C223.185760,299.263855 219.060959,300.433472 217.837891,302.249329 
	C216.489166,304.251709 217.533249,307.865753 218.045044,311.353851 
M269.854492,310.096649 
	C271.788116,304.774994 270.456482,301.176941 265.966431,299.591278 
	C262.099976,298.225800 257.799683,300.079132 257.151367,304.347809 
	C256.783112,306.772766 257.948425,310.384125 259.741760,311.970459 
	C262.777893,314.656158 266.543182,313.998901 269.854492,310.096649 
M219.988937,175.532211 
	C212.678040,176.251694 205.367142,176.971176 198.056259,177.690659 
	C198.097015,178.111130 198.137787,178.531601 198.178558,178.952057 
	C206.941818,179.624176 215.705078,180.296295 224.468338,180.968414 
	C224.753464,180.410034 225.038574,179.851639 225.323685,179.293259 
	C223.791595,178.085266 222.259521,176.877274 219.988937,175.532211 
M312.775452,302.005096 
	C314.532501,301.792938 316.289581,301.580811 319.376953,301.208008 
	C313.093994,298.137024 308.392700,298.772125 308.126160,301.946198 
	C307.826874,305.510468 308.057343,309.119232 308.057343,312.490845 
	C311.811066,312.490845 314.735016,312.490845 317.658997,312.490845 
	C317.670441,312.169861 317.681885,311.848846 317.693359,311.527863 
	C315.472290,311.105865 313.251221,310.683838 311.030151,310.261841 
	C310.961456,309.808777 310.892731,309.355713 310.824036,308.902649 
	C312.910126,308.191071 314.996185,307.479462 317.082275,306.767883 
	C317.050537,306.354767 317.018799,305.941650 316.987061,305.528503 
	C315.654633,305.350586 314.170685,305.465393 313.047211,304.883820 
	C312.383911,304.540466 312.291382,303.094543 312.775452,302.005096 
M300.380615,303.424805 
	C297.407959,302.055603 294.483948,300.550568 291.414673,299.450989 
	C290.903442,299.267822 289.084290,300.800629 289.024841,301.623901 
	C288.758087,305.318054 288.908661,309.042328 288.908661,312.658783 
	C298.519135,313.561157 301.231476,311.433899 300.380615,303.424805 
M333.339478,312.707458 
	C339.513458,305.442657 329.586823,306.323944 327.760681,302.413818 
	C329.353241,302.303864 330.403931,302.205444 331.456787,302.166199 
	C332.418945,302.130371 333.383453,302.158600 335.066925,302.158600 
	C331.925720,298.666626 328.437103,297.743713 326.377930,300.719513 
	C321.886688,307.209900 330.582336,306.271088 332.596436,310.256836 
	C329.842499,310.256836 327.615112,310.256836 325.387756,310.256836 
	C325.335999,310.943390 325.284241,311.629944 325.232483,312.316498 
	C327.706116,312.556335 330.179718,312.796173 333.339478,312.707458 
M205.352753,313.069092 
	C206.784836,312.928772 208.216919,312.788452 209.649002,312.648132 
	C203.487976,309.872284 203.518188,309.869965 202.940948,302.323547 
	C202.861557,301.285492 202.307938,300.283722 201.973892,299.265137 
	C201.358139,299.342957 200.742386,299.420776 200.126633,299.498596 
	C200.126633,302.681976 200.336761,305.883057 200.070374,309.044006 
	C199.775528,312.542480 201.414551,313.450317 205.352753,313.069092 
M345.065979,305.567566 
	C344.932251,303.783997 344.798553,302.000427 344.664856,300.216827 
	C344.285553,300.256012 343.906219,300.295197 343.526886,300.334381 
	C343.526886,304.412201 343.526886,308.489990 343.526886,312.567810 
	C344.038879,312.572540 344.550873,312.577271 345.062866,312.582001 
	C345.062866,310.548767 345.062866,308.515533 345.065979,305.567566 
z"/>
<path fill="#060606" opacity="1.000000" stroke="none" 
	d="
M364.233215,146.662720 
	C370.451508,147.875626 376.594177,148.291809 381.922699,150.593079 
	C388.095795,153.259109 391.287262,159.001953 391.849609,166.113800 
	C384.361328,155.174530 374.069946,154.571686 363.472656,159.192352 
	C350.231110,164.965988 337.432587,171.778488 324.564453,178.379593 
	C311.235474,185.217102 298.054840,192.291580 283.254120,195.640106 
	C267.629181,199.175095 253.967316,195.707001 243.262650,183.751343 
	C237.645416,177.477661 233.250610,170.103363 228.375061,163.175919 
	C227.133728,161.412170 226.064560,159.507797 225.085342,157.582047 
	C215.121246,137.986496 198.248978,132.649460 177.806778,134.531128 
	C173.742798,134.905212 169.652054,134.988342 165.511414,134.783340 
	C175.678314,128.514999 186.462692,124.251297 198.397308,123.551773 
	C213.022583,122.694542 225.106094,128.297562 234.899689,138.851929 
	C239.304749,143.599167 243.119171,148.897049 247.160904,153.977448 
	C248.611588,155.800964 249.923157,157.734436 251.331696,159.592331 
	C262.701111,174.589050 268.783386,176.960571 286.503906,171.007019 
	C302.257477,165.714294 317.474915,158.816040 333.254944,153.615402 
	C343.123688,150.362946 353.596100,148.942078 364.233215,146.662720 
z"/>
<path fill="#97989B" opacity="1.000000" stroke="none" 
	d="
M364.100220,129.880432 
	C361.869659,132.684265 362.067200,130.629211 362.191376,129.280304 
	C363.164673,118.705505 359.668030,109.183464 354.797882,100.189056 
	C352.270844,95.521950 348.586639,91.481400 345.031128,86.618965 
	C340.588257,93.754326 337.317017,99.917992 333.198669,105.451126 
	C321.002869,121.836464 302.415955,125.017181 285.759003,113.214073 
	C279.356232,108.677048 274.038818,102.608292 268.054535,97.078217 
	C262.243103,114.076721 262.683197,131.288452 269.984741,148.375809 
	C269.596527,148.602631 269.208282,148.829453 268.820038,149.056290 
	C266.830200,146.496185 264.527069,144.119659 262.901978,141.345871 
	C253.146179,124.694138 251.320572,106.949295 256.132446,88.416931 
	C256.628113,86.507904 257.534912,84.668488 258.477631,82.918915 
	C263.393250,73.796097 271.732178,73.307137 278.557220,81.102928 
	C283.661652,86.933372 289.056061,92.767097 295.262909,97.314003 
	C304.201477,103.862053 311.754211,102.432747 318.877502,93.944366 
	C322.175873,90.013885 324.973755,85.646515 327.828827,81.364082 
	C336.142914,68.893517 349.151428,68.025055 357.620087,80.346817 
	C367.950378,95.377296 371.149567,111.925331 364.100220,129.880432 
z"/>
<path fill="#080808" opacity="1.000000" stroke="none" 
	d="
M349.539978,247.642303 
	C355.836639,246.060516 360.255798,247.761658 363.562805,253.274323 
	C366.152802,257.591736 369.715881,261.325348 373.670593,266.369202 
	C373.670593,259.317200 373.670593,253.607285 373.670593,247.504395 
	C377.152100,247.504395 380.207153,247.504395 383.665405,247.504395 
	C383.665405,259.372498 383.665405,271.404907 383.665405,283.790497 
	C378.555573,284.876434 374.188629,284.622253 370.844574,279.157623 
	C367.846954,274.259094 363.816620,269.992554 359.334778,264.293854 
	C359.334778,271.666779 359.334778,277.677856 359.334778,283.920898 
	C355.675812,283.920898 352.615417,283.920898 349.220764,283.920898 
	C349.220764,271.800018 349.220764,259.884796 349.539978,247.642303 
z"/>
<path fill="#0B0B0B" opacity="1.000000" stroke="none" 
	d="
M423.554504,251.391678 
	C422.123413,254.090897 420.479034,256.504639 418.702240,259.112732 
	C416.940887,258.174316 415.586151,257.245422 414.091888,256.695923 
	C409.886841,255.149612 405.813477,255.229797 402.640167,258.851044 
	C399.474365,262.463715 399.001282,266.701294 401.108032,270.955414 
	C403.204865,275.189453 406.971008,276.556671 411.539520,276.107941 
	C415.102051,275.758026 416.699860,274.120911 415.379883,270.216949 
	C413.330688,270.110443 411.194763,269.999390 408.676086,269.868439 
	C408.676086,267.595062 408.676086,265.374878 408.676086,262.611786 
	C413.287170,262.611786 417.915863,262.589935 422.544067,262.629608 
	C423.506042,262.637848 424.466064,262.874084 425.757233,263.050323 
	C425.757233,267.852173 425.835388,272.492889 425.696625,277.127075 
	C425.665894,278.153290 425.153107,279.551056 424.379852,280.108429 
	C417.790741,284.857819 410.505127,286.431213 402.658875,283.964905 
	C395.589447,281.742828 391.134064,277.039093 389.731598,269.571869 
	C388.347717,262.203522 390.447845,255.970657 396.039154,251.191345 
	C402.469452,245.694839 410.003265,245.529160 417.692047,247.999451 
	C419.700531,248.644745 421.464813,250.049973 423.554504,251.391678 
z"/>
<path fill="#0A0A0A" opacity="1.000000" stroke="none" 
	d="
M255.215012,270.034973 
	C252.544724,279.295319 246.416260,284.130554 237.450302,284.913910 
	C229.175201,285.636902 222.410339,282.436768 218.163162,275.035034 
	C214.043045,267.854706 215.256210,258.848907 220.896286,252.797348 
	C226.779434,246.484970 236.829010,244.672394 244.843018,248.478180 
	C252.810181,252.261734 256.651001,260.038544 255.215012,270.034973 
M235.584244,275.605408 
	C242.304916,274.434845 245.133163,271.471741 245.058411,265.679382 
	C244.994980,260.762939 241.832886,256.856293 237.328857,256.129791 
	C232.349091,255.326569 227.927094,258.205597 226.776138,263.000397 
	C225.314270,269.090302 228.224823,273.609283 235.584244,275.605408 
z"/>
<path fill="#0A0A0A" opacity="1.000000" stroke="none" 
	d="
M210.885452,252.199677 
	C210.885559,262.968597 210.885559,273.258423 210.885559,283.854004 
	C207.295364,283.854004 204.072098,283.854004 200.354889,283.854004 
	C200.354889,279.475494 200.354889,275.215576 200.354889,270.680908 
	C195.835083,270.680908 191.803970,270.680908 187.307220,270.680908 
	C187.307220,275.249817 187.307220,279.504608 187.307220,283.955841 
	C183.736526,283.955841 180.630264,283.955841 177.241638,283.955841 
	C177.241638,271.790436 177.241638,259.745209 177.241638,247.402039 
	C180.443726,247.402039 183.537811,247.402039 187.092896,247.402039 
	C187.092896,251.748276 187.092896,256.170898 187.092896,260.854584 
	C191.634552,260.854584 195.722015,260.854584 200.360107,260.854584 
	C200.360107,256.318756 200.360107,251.921524 200.360107,247.329559 
	C204.006439,247.329559 207.107452,247.329559 210.600510,247.329559 
	C210.698822,248.845169 210.792084,250.282867 210.885452,252.199677 
z"/>
<path fill="#0A0A0A" opacity="1.000000" stroke="none" 
	d="
M156.298553,276.138428 
	C158.383102,275.414551 160.033356,274.664124 161.683609,273.913696 
	C160.200027,272.834930 158.849609,271.435730 157.202240,270.751068 
	C154.612213,269.674652 151.787979,269.178589 149.124344,268.258820 
	C144.433578,266.639130 141.518616,263.567688 141.667465,258.303802 
	C141.815048,253.084930 144.324615,249.251282 149.273346,247.738770 
	C156.965607,245.387711 164.307281,246.279175 171.236328,251.560379 
	C169.491302,254.036331 167.904404,256.287903 166.530121,258.237854 
	C162.794495,257.147644 159.533875,255.914871 156.161987,255.366913 
	C155.006653,255.179169 153.572647,256.706329 152.265945,257.450012 
	C153.232956,258.396576 154.038300,259.771057 155.197479,260.209045 
	C158.597870,261.493896 162.213409,262.212250 165.606140,263.513672 
	C169.856262,265.144012 172.320450,268.209839 172.180634,273.046997 
	C172.041977,277.843292 169.926743,281.270569 165.575043,283.319275 
	C157.826019,286.967407 146.492844,284.842682 140.144180,278.462128 
	C141.817017,276.431000 143.498215,274.389771 145.051239,272.504120 
	C148.790649,273.751740 152.327469,274.931793 156.298553,276.138428 
z"/>
<path fill="#0C0C0C" opacity="1.000000" stroke="none" 
	d="
M326.156311,266.954407 
	C321.495178,274.255615 314.163147,273.494232 307.041504,273.861969 
	C307.041504,277.255951 307.041504,280.366180 307.041504,283.823700 
	C303.537323,283.823700 300.331299,283.823700 296.772156,283.823700 
	C296.772156,271.854828 296.772156,259.840240 296.772156,246.740524 
	C304.199890,247.198532 311.671417,246.933426 318.834045,248.294281 
	C326.840088,249.815369 329.685211,257.818481 326.156311,266.954407 
M310.332886,265.900665 
	C314.112610,265.821442 317.571625,265.114380 317.398743,260.301666 
	C317.265778,256.599487 314.212616,255.519043 306.917603,256.486633 
	C306.917603,258.870758 306.712769,261.349213 307.033752,263.757538 
	C307.139587,264.551300 308.604340,265.163940 310.332886,265.900665 
z"/>
<path fill="#090909" opacity="1.000000" stroke="none" 
	d="
M281.864136,273.081909 
	C278.171844,273.435364 274.890533,273.739044 271.298584,274.071472 
	C271.298584,277.322235 271.298584,280.432892 271.298584,283.856506 
	C267.903503,283.856506 264.824005,283.856506 261.358337,283.856506 
	C261.358337,271.953064 261.358337,259.912323 261.358337,246.704041 
	C268.758179,247.213486 276.356476,247.213715 283.758026,248.420639 
	C289.151489,249.300095 292.098907,254.230087 292.261597,259.925598 
	C292.446747,266.407898 289.575256,270.176575 281.864136,273.081909 
M271.863800,256.238800 
	C271.582886,259.260468 271.302002,262.282104 271.028595,265.223022 
	C278.131683,266.484802 281.689941,265.046387 281.975220,261.185760 
	C282.253815,257.416107 279.885742,256.009125 273.210785,255.979370 
	C273.045654,255.978638 272.880463,255.987106 271.863800,256.238800 
z"/>
<path fill="#070707" opacity="1.000000" stroke="none" 
	d="
M357.789612,192.949631 
	C356.477448,184.901581 359.642578,178.667953 365.924255,176.347870 
	C371.939606,174.126129 378.640350,176.313004 382.159637,181.646545 
	C385.565338,186.807968 384.857605,194.159592 380.527710,198.598129 
	C373.466614,205.836380 362.638550,203.318405 357.789612,192.949631 
z"/>
<path fill="#070707" opacity="1.000000" stroke="none" 
	d="
M308.716431,207.955414 
	C316.176300,212.000595 319.018585,218.204407 316.832184,224.975449 
	C314.919678,230.898300 308.930481,234.671753 302.410156,234.061951 
	C296.087616,233.470673 291.139099,228.556137 290.346985,222.081665 
	C289.153015,212.322266 298.019348,205.301712 308.716431,207.955414 
z"/>
<path fill="#131313" opacity="1.000000" stroke="none" 
	d="
M341.258850,284.136139 
	C338.037720,284.186707 335.243073,284.186707 332.318359,284.186707 
	C332.318359,271.773895 332.318359,259.852081 332.318359,247.508484 
	C335.594360,247.508484 338.804596,247.508484 342.719330,247.508484 
	C342.719330,257.605865 342.773865,267.842255 342.672607,278.077118 
	C342.652771,280.082977 342.030029,282.082916 341.258850,284.136139 
z"/>
<path fill="#9E9FA2" opacity="1.000000" stroke="none" 
	d="
M218.106888,191.170761 
	C223.581085,191.011459 228.683044,190.143936 233.528488,190.906448 
	C238.527008,191.693069 243.275925,194.065842 247.862549,196.716904 
	C225.867340,195.806290 203.872131,194.895676 181.876923,193.985046 
	C181.860214,193.607193 181.843506,193.229324 181.826782,192.851456 
	C193.758530,192.293777 205.690262,191.736084 218.106888,191.170761 
z"/>
<path fill="#9E9FA2" opacity="1.000000" stroke="none" 
	d="
M161.024780,162.231339 
	C176.474426,161.527267 191.931641,160.950653 207.368729,160.034958 
	C211.546463,159.787140 213.415421,161.549332 214.614395,165.978149 
	C196.713196,165.150711 179.198547,164.341141 161.360443,163.173340 
	C161.032913,162.620514 161.028839,162.425919 161.024780,162.231339 
z"/>
<path fill="#A6A6A9" opacity="1.000000" stroke="none" 
	d="
M382.167236,302.266571 
	C382.625031,301.040436 383.085327,300.199707 383.545593,299.359009 
	C383.871185,299.458801 384.196777,299.558594 384.522369,299.658417 
	C384.522369,303.959473 384.522369,308.260529 384.522369,312.561584 
	C384.172150,312.861694 383.821960,313.161804 383.471741,313.461914 
	C381.127502,310.870850 378.783264,308.279785 376.186310,305.409363 
	C375.778870,308.234833 375.436310,310.610535 375.093750,312.986237 
	C374.592957,312.949768 374.092133,312.913300 373.591309,312.876831 
	C373.591309,308.504456 373.591309,304.132080 373.591309,299.759705 
	C373.895416,299.442902 374.199524,299.126129 374.503632,298.809357 
	C376.707977,301.363770 378.912354,303.918182 381.691071,307.138123 
	C381.890198,305.271942 382.029968,303.961975 382.167236,302.266571 
z"/>
<path fill="#A6A6A9" opacity="1.000000" stroke="none" 
	d="
M249.709137,306.385925 
	C250.609802,310.609802 248.995621,313.012665 245.210449,313.456116 
	C241.613480,313.877502 238.446838,312.468506 237.350967,308.829712 
	C236.350586,305.508057 236.805420,302.066650 240.319748,300.187164 
	C243.386093,298.547241 246.440475,298.348358 249.194580,301.955841 
	C245.901611,303.317261 240.921844,299.767395 240.124741,305.354279 
	C239.909256,306.864594 240.690201,309.151062 241.827515,310.039001 
	C242.926285,310.896820 245.074432,310.410461 246.761627,310.514587 
	C246.849899,310.027283 246.938187,309.539948 247.026459,309.052643 
	C246.438278,308.642029 245.833481,308.252808 245.267029,307.814148 
	C244.793381,307.447327 244.364609,307.022614 243.915985,306.623535 
	C244.010406,306.162109 244.104828,305.700714 244.199265,305.239288 
	C245.999008,305.491486 247.798767,305.743713 249.709137,306.385925 
z"/>
<path fill="#A6A6A9" opacity="1.000000" stroke="none" 
	d="
M356.997559,303.142548 
	C356.942261,305.657257 356.718323,308.103088 357.630554,310.003632 
	C358.014954,310.804565 360.796082,310.455200 362.487762,310.628723 
	C362.601959,310.148895 362.716125,309.669067 362.830322,309.189240 
	C361.829407,308.342438 360.828461,307.495667 359.364777,306.257416 
	C360.677826,305.756195 361.642609,305.009460 362.281677,305.225616 
	C363.479462,305.630737 365.438660,306.659302 365.393402,307.311432 
	C365.270966,309.076141 364.532257,312.056671 363.555542,312.262207 
	C360.868988,312.827576 357.552551,313.015900 355.192780,311.881622 
	C351.962616,310.328949 352.027679,304.042938 354.691223,301.221497 
	C357.360626,298.393799 361.335175,298.519562 364.819244,301.889832 
	C362.104767,302.237091 359.696472,302.545166 356.997559,303.142548 
z"/>
<path fill="#A6A6A9" opacity="1.000000" stroke="none" 
	d="
M217.790024,311.065796 
	C217.533249,307.865753 216.489166,304.251709 217.837891,302.249329 
	C219.060959,300.433472 223.185760,299.263855 225.482727,299.874023 
	C227.490646,300.407440 229.742477,303.694763 230.014374,305.987518 
	C230.253372,308.002625 228.365845,310.882660 226.579620,312.383453 
	C223.810852,314.709839 220.669922,313.650452 217.790024,311.065796 
M219.118179,308.043854 
	C220.436508,310.661316 222.593399,312.154205 225.087845,310.243011 
	C226.446991,309.201660 227.506851,306.578003 227.203735,304.946228 
	C226.972794,303.702881 223.598358,301.718231 222.993546,302.121216 
	C221.269714,303.269775 220.246460,305.469788 219.118179,308.043854 
z"/>
<path fill="#A6A6A9" opacity="1.000000" stroke="none" 
	d="
M269.634399,310.409363 
	C266.543182,313.998901 262.777893,314.656158 259.741760,311.970459 
	C257.948425,310.384125 256.783112,306.772766 257.151367,304.347809 
	C257.799683,300.079132 262.099976,298.225800 265.966431,299.591278 
	C270.456482,301.176941 271.788116,304.774994 269.634399,310.409363 
M267.072998,309.439606 
	C268.682343,306.834900 268.730316,304.138824 265.942352,302.670654 
	C264.600983,301.964264 261.564575,302.247284 260.791870,303.243134 
	C259.778717,304.548798 259.407318,308.050598 260.257782,308.728394 
	C261.742065,309.911346 264.369659,309.659729 267.072998,309.439606 
z"/>
<path fill="#9E9FA2" opacity="1.000000" stroke="none" 
	d="
M220.358185,175.600739 
	C222.259521,176.877274 223.791595,178.085266 225.323685,179.293259 
	C225.038574,179.851639 224.753464,180.410034 224.468338,180.968414 
	C215.705078,180.296295 206.941818,179.624176 198.178558,178.952057 
	C198.137787,178.531601 198.097015,178.111130 198.056259,177.690659 
	C205.367142,176.971176 212.678040,176.251694 220.358185,175.600739 
z"/>
<path fill="#A6A6A9" opacity="1.000000" stroke="none" 
	d="
M312.358826,302.074768 
	C312.291382,303.094543 312.383911,304.540466 313.047211,304.883820 
	C314.170685,305.465393 315.654633,305.350586 316.987061,305.528503 
	C317.018799,305.941650 317.050537,306.354767 317.082275,306.767883 
	C314.996185,307.479462 312.910126,308.191071 310.824036,308.902649 
	C310.892731,309.355713 310.961456,309.808777 311.030151,310.261841 
	C313.251221,310.683838 315.472290,311.105865 317.693359,311.527863 
	C317.681885,311.848846 317.670441,312.169861 317.658997,312.490845 
	C314.735016,312.490845 311.811066,312.490845 308.057343,312.490845 
	C308.057343,309.119232 307.826874,305.510468 308.126160,301.946198 
	C308.392700,298.772125 313.093994,298.137024 319.376953,301.208008 
	C316.289581,301.580811 314.532501,301.792938 312.358826,302.074768 
z"/>
<path fill="#9E9FA2" opacity="1.000000" stroke="none" 
	d="
M300.544647,303.781219 
	C301.231476,311.433899 298.519135,313.561157 288.908661,312.658783 
	C288.908661,309.042328 288.758087,305.318054 289.024841,301.623901 
	C289.084290,300.800629 290.903442,299.267822 291.414673,299.450989 
	C294.483948,300.550568 297.407959,302.055603 300.544647,303.781219 
M298.176453,306.469879 
	C297.738007,302.320435 295.301117,301.399109 291.389893,302.353149 
	C291.389893,305.128937 291.389893,307.823730 291.389893,310.700165 
	C294.744202,311.247711 297.211426,310.830322 298.176453,306.469879 
z"/>
<path fill="#A6A6A9" opacity="1.000000" stroke="none" 
	d="
M332.996399,312.871765 
	C330.179718,312.796173 327.706116,312.556335 325.232483,312.316498 
	C325.284241,311.629944 325.335999,310.943390 325.387756,310.256836 
	C327.615112,310.256836 329.842499,310.256836 332.596436,310.256836 
	C330.582336,306.271088 321.886688,307.209900 326.377930,300.719513 
	C328.437103,297.743713 331.925720,298.666626 335.066925,302.158600 
	C333.383453,302.158600 332.418945,302.130371 331.456787,302.166199 
	C330.403931,302.205444 329.353241,302.303864 327.760681,302.413818 
	C329.586823,306.323944 339.513458,305.442657 332.996399,312.871765 
z"/>
<path fill="#A6A6A9" opacity="1.000000" stroke="none" 
	d="
M204.904724,313.067871 
	C201.414551,313.450317 199.775528,312.542480 200.070374,309.044006 
	C200.336761,305.883057 200.126633,302.681976 200.126633,299.498596 
	C200.742386,299.420776 201.358139,299.342957 201.973892,299.265137 
	C202.307938,300.283722 202.861557,301.285492 202.940948,302.323547 
	C203.518188,309.869965 203.487976,309.872284 209.649002,312.648132 
	C208.216919,312.788452 206.784836,312.928772 204.904724,313.067871 
z"/>
<path fill="#9E9FA2" opacity="1.000000" stroke="none" 
	d="
M345.064423,306.024933 
	C345.062866,308.515533 345.062866,310.548767 345.062866,312.582001 
	C344.550873,312.577271 344.038879,312.572540 343.526886,312.567810 
	C343.526886,308.489990 343.526886,304.412201 343.526886,300.334381 
	C343.906219,300.295197 344.285553,300.256012 344.664856,300.216827 
	C344.798553,302.000427 344.932251,303.783997 345.064423,306.024933 
z"/>
<path fill="#A6A6A9" opacity="1.000000" stroke="none" 
	d="
M160.570526,162.166870 
	C161.028839,162.425919 161.032913,162.620514 161.039551,163.110229 
	C157.511810,163.405350 153.981537,163.405350 150.451279,163.405350 
	C150.452866,162.971039 150.454468,162.536728 150.456070,162.102417 
	C153.676132,162.102417 156.896210,162.102417 160.570526,162.166870 
z"/>
<path fill="#F5F5F5" opacity="1.000000" stroke="none" 
	d="
M235.209396,275.558777 
	C228.224823,273.609283 225.314270,269.090302 226.776138,263.000397 
	C227.927094,258.205597 232.349091,255.326569 237.328857,256.129791 
	C241.832886,256.856293 244.994980,260.762939 245.058411,265.679382 
	C245.133163,271.471741 242.304916,274.434845 235.209396,275.558777 
z"/>
<path fill="#EBEBEB" opacity="1.000000" stroke="none" 
	d="
M309.890320,265.880035 
	C308.604340,265.163940 307.139587,264.551300 307.033752,263.757538 
	C306.712769,261.349213 306.917603,258.870758 306.917603,256.486633 
	C314.212616,255.519043 317.265778,256.599487 317.398743,260.301666 
	C317.571625,265.114380 314.112610,265.821442 309.890320,265.880035 
z"/>
<path fill="#EBEBEB" opacity="1.000000" stroke="none" 
	d="
M272.289551,256.115051 
	C272.880463,255.987106 273.045654,255.978638 273.210785,255.979370 
	C279.885742,256.009125 282.253815,257.416107 281.975220,261.185760 
	C281.689941,265.046387 278.131683,266.484802 271.028595,265.223022 
	C271.302002,262.282104 271.582886,259.260468 272.289551,256.115051 
z"/>
<path fill="#F5F5F5" opacity="1.000000" stroke="none" 
	d="
M219.032867,307.649963 
	C220.246460,305.469788 221.269714,303.269775 222.993546,302.121216 
	C223.598358,301.718231 226.972794,303.702881 227.203735,304.946228 
	C227.506851,306.578003 226.446991,309.201660 225.087845,310.243011 
	C222.593399,312.154205 220.436508,310.661316 219.032867,307.649963 
z"/>
<path fill="#F5F5F5" opacity="1.000000" stroke="none" 
	d="
M266.795532,309.724487 
	C264.369659,309.659729 261.742065,309.911346 260.257782,308.728394 
	C259.407318,308.050598 259.778717,304.548798 260.791870,303.243134 
	C261.564575,302.247284 264.600983,301.964264 265.942352,302.670654 
	C268.730316,304.138824 268.682343,306.834900 266.795532,309.724487 
z"/>
<path fill="#F5F5F5" opacity="1.000000" stroke="none" 
	d="
M298.144470,306.882935 
	C297.211426,310.830322 294.744202,311.247711 291.389893,310.700165 
	C291.389893,307.823730 291.389893,305.128937 291.389893,302.353149 
	C295.301117,301.399109 297.738007,302.320435 298.144470,306.882935 
z"/>
</svg>