<?xml version="1.0" standalone="no"?>
<!DOCTYPE svg PUBLIC "-//W3C//DTD SVG 20010904//EN"
 "http://www.w3.org/TR/2001/REC-SVG-20010904/DTD/svg10.dtd">
<svg version="1.0" xmlns="http://www.w3.org/2000/svg"
 width="580.000000pt" height="386.000000pt" viewBox="0 0 580.000000 386.000000"
 preserveAspectRatio="xMidYMid meet">
<metadata>
Created by potrace 1.16, written by Peter Selinger 2001-2019
</metadata>
<g transform="translate(0.000000,386.000000) scale(0.100000,-0.100000)"
fill="#000000" stroke="none">
<path d="M1935 2630 c-78 -11 -162 -38 -238 -76 -38 -20 -67 -37 -66 -38 2 -2
49 1 104 6 117 11 243 -2 310 -31 75 -33 139 -104 226 -248 121 -201 214 -291
338 -327 150 -44 322 7 686 202 288 155 354 182 450 182 55 0 105 -24 142 -69
18 -21 22 -23 23 -8 0 28 -36 92 -69 120 -57 48 -109 60 -228 54 -132 -6 -231
-34 -513 -147 -227 -91 -344 -124 -405 -117 -61 6 -122 53 -195 149 -131 171
-175 221 -236 264 -101 72 -214 101 -329 84z"/>
<path d="M3629 2095 c-14 -8 -33 -25 -42 -38 -74 -113 34 -250 159 -202 55 21
84 65 84 130 0 42 -5 52 -39 86 -34 35 -44 39 -87 39 -27 -1 -61 -7 -75 -15z"/>
<path d="M2960 1778 c-80 -53 -88 -142 -20 -210 32 -32 44 -38 81 -38 79 0
140 55 141 127 1 78 -47 132 -125 140 -33 4 -50 0 -77 -19z"/>
<path d="M1474 1390 c-64 -26 -87 -129 -39 -174 14 -13 55 -32 90 -41 66 -18
92 -36 80 -55 -11 -18 -88 -11 -124 11 l-35 21 -28 -33 -28 -34 27 -22 c30
-24 94 -43 148 -43 81 0 145 53 145 121 0 57 -31 86 -120 113 -49 15 -76 28
-78 39 -5 26 42 32 95 12 l45 -18 24 29 c13 16 23 33 24 37 0 4 -19 17 -42 27
-45 21 -145 26 -184 10z"/>
<path d="M1760 1215 l0 -185 50 0 49 0 3 68 3 67 63 3 62 3 0 -71 0 -70 55 0
55 0 0 186 0 185 -52 -3 -53 -3 -3 -67 -3 -68 -64 0 -65 0 0 70 0 70 -50 0
-50 0 0 -185z"/>
<path d="M2247 1379 c-54 -29 -97 -100 -97 -161 0 -63 19 -106 63 -145 47 -41
98 -57 159 -50 159 19 229 195 125 314 -17 20 -46 42 -64 49 -48 21 -141 17
-186 -7z m164 -98 c51 -51 33 -137 -33 -160 -70 -25 -139 46 -118 120 21 72
99 92 151 40z"/>
<path d="M2600 1216 l0 -186 50 0 50 0 0 49 0 48 60 6 c33 4 74 14 90 22 81
42 79 178 -3 222 -23 12 -63 18 -139 21 l-108 4 0 -186z"/>
<path d="M2958 1394 c-2 -5 -4 -88 -4 -184 l1 -175 53 -3 52 -3 0 49 0 49 55
6 c30 3 66 11 81 19 91 44 93 185 4 229 -29 15 -235 25 -242 13z"/>
<path d="M3310 1216 l0 -186 55 0 55 0 -2 183 -3 182 -52 3 -53 3 0 -185z"/>
<path d="M3480 1215 l0 -185 50 0 49 0 3 97 3 98 75 -97 75 -97 48 0 47 -1 0
185 0 185 -50 0 -49 0 -3 -97 -3 -96 -75 96 -75 97 -47 0 -48 0 0 -185z"/>
<path d="M3995 1386 c-42 -18 -92 -78 -105 -126 -45 -169 135 -296 301 -212
l54 27 3 83 3 82 -91 0 -91 0 3 -32 c3 -30 6 -33 41 -36 31 -3 37 -7 37 -27 0
-47 -86 -50 -132 -5 -28 28 -30 36 -25 78 4 34 12 53 32 69 31 27 90 31 124 7
22 -16 24 -15 51 17 16 19 29 37 30 41 0 3 -19 16 -43 27 -50 24 -145 28 -192
7z"/>
</g>
</svg>
